<svg xmlns="http://www.w3.org/2000/svg" width="820" height="466" viewBox="0 0 820 466" role="img" aria-label="Tech stack">
<style>
.pill{animation:pillTint 14s ease-in-out infinite}
@keyframes pillTint{
0%,100%{stroke:#3a6a8a;filter:drop-shadow(0 0 3px rgba(56,189,248,.18))}
50%{stroke:#2dd4bf;filter:drop-shadow(0 0 4px rgba(45,212,191,.28))}
}
.beam{animation:beamFlow 9s ease-in-out infinite}
@keyframes beamFlow{0%,100%{stop-color:#38bdf8}50%{stop-color:#2dd4bf}}
text{font-family:'Segoe UI',system-ui,-apple-system,sans-serif}
</style>
<defs>
<linearGradient id="panel" x1="0" y1="0" x2="1" y2="1">
<stop offset="0" stop-color="#101d33"/><stop offset="1" stop-color="#0a1424"/>
</linearGradient>
<linearGradient id="glass" x1="0" y1="0" x2="0" y2="1">
<stop offset="0" stop-color="#ffffff" stop-opacity=".10"/>
<stop offset=".45" stop-color="#ffffff" stop-opacity=".045"/>
<stop offset="1" stop-color="#ffffff" stop-opacity=".02"/>
</linearGradient>
</defs>
<rect x="1" y="1" width="818" height="464" rx="20" fill="url(#panel)" stroke="#ffffff" stroke-opacity=".09"/>
<text x="28" y="44" font-size="12" font-weight="700" fill="#8b98b8" letter-spacing="3">LLM &amp; AGENTS</text>
<rect class="beam" x="28" y="52" width="44" height="3" rx="1.5" fill="#22d3ee"/>
<g class="pill" style="animation-delay:0.00s"><rect x="28" y="58" width="99" height="32" rx="16.0" fill="url(#glass)" stroke="#3a6a8a" stroke-width="1"/><rect x="33" y="60.5" width="89" height="8" rx="4" fill="#ffffff" opacity=".10"/><text x="78" y="79.0" font-size="13.5" fill="#eaf2ff" text-anchor="middle">LangChain</text></g>
<g class="pill" style="animation-delay:-0.67s"><rect x="136" y="58" width="102" height="32" rx="16.0" fill="url(#glass)" stroke="#3a6a8a" stroke-width="1"/><rect x="141" y="60.5" width="92" height="8" rx="4" fill="#ffffff" opacity=".10"/><text x="187" y="79.0" font-size="13.5" fill="#eaf2ff" text-anchor="middle">LangGraph</text></g>
<g class="pill" style="animation-delay:-1.33s"><rect x="247" y="58" width="108" height="32" rx="16.0" fill="url(#glass)" stroke="#3a6a8a" stroke-width="1"/><rect x="252" y="60.5" width="98" height="8" rx="4" fill="#ffffff" opacity=".10"/><text x="301" y="79.0" font-size="13.5" fill="#eaf2ff" text-anchor="middle">Google ADK</text></g>
<g class="pill" style="animation-delay:-2.00s"><rect x="364" y="58" width="58" height="32" rx="16.0" fill="url(#glass)" stroke="#3a6a8a" stroke-width="1"/><rect x="369" y="60.5" width="48" height="8" rx="4" fill="#ffffff" opacity=".10"/><text x="393" y="79.0" font-size="13.5" fill="#eaf2ff" text-anchor="middle">MCP</text></g>
<g class="pill" style="animation-delay:-2.67s"><rect x="431" y="58" width="102" height="32" rx="16.0" fill="url(#glass)" stroke="#3a6a8a" stroke-width="1"/><rect x="436" y="60.5" width="92" height="8" rx="4" fill="#ffffff" opacity=".10"/><text x="482" y="79.0" font-size="13.5" fill="#eaf2ff" text-anchor="middle">OpenAI API</text></g>
<g class="pill" style="animation-delay:-3.33s"><rect x="542" y="58" width="101" height="32" rx="16.0" fill="url(#glass)" stroke="#3a6a8a" stroke-width="1"/><rect x="547" y="60.5" width="91" height="8" rx="4" fill="#ffffff" opacity=".10"/><text x="592" y="79.0" font-size="13.5" fill="#eaf2ff" text-anchor="middle">Gemini API</text></g>
<g class="pill" style="animation-delay:-4.00s"><rect x="652" y="58" width="119" height="32" rx="16.0" fill="url(#glass)" stroke="#3a6a8a" stroke-width="1"/><rect x="657" y="60.5" width="109" height="8" rx="4" fill="#ffffff" opacity=".10"/><text x="712" y="79.0" font-size="13.5" fill="#eaf2ff" text-anchor="middle">Azure OpenAI</text></g>
<g class="pill" style="animation-delay:-4.67s"><rect x="28" y="100" width="118" height="32" rx="16.0" fill="url(#glass)" stroke="#3a6a8a" stroke-width="1"/><rect x="33" y="102.5" width="108" height="8" rx="4" fill="#ffffff" opacity=".10"/><text x="87" y="121.0" font-size="13.5" fill="#eaf2ff" text-anchor="middle">Hugging Face</text></g>
<text x="28" y="174" font-size="12" font-weight="700" fill="#8b98b8" letter-spacing="3">RETRIEVAL &amp; DATA</text>
<rect class="beam" x="28" y="182" width="44" height="3" rx="1.5" fill="#22d3ee"/>
<g class="pill" style="animation-delay:-5.33s"><rect x="28" y="188" width="133" height="32" rx="16.0" fill="url(#glass)" stroke="#3a6a8a" stroke-width="1"/><rect x="33" y="190.5" width="123" height="8" rx="4" fill="#ffffff" opacity=".10"/><text x="94" y="209.0" font-size="13.5" fill="#eaf2ff" text-anchor="middle">Azure AI Search</text></g>
<g class="pill" style="animation-delay:-6.00s"><rect x="170" y="188" width="66" height="32" rx="16.0" fill="url(#glass)" stroke="#3a6a8a" stroke-width="1"/><rect x="175" y="190.5" width="56" height="8" rx="4" fill="#ffffff" opacity=".10"/><text x="203" y="209.0" font-size="13.5" fill="#eaf2ff" text-anchor="middle">FAISS</text></g>
<g class="pill" style="animation-delay:-6.67s"><rect x="245" y="188" width="88" height="32" rx="16.0" fill="url(#glass)" stroke="#3a6a8a" stroke-width="1"/><rect x="250" y="190.5" width="78" height="8" rx="4" fill="#ffffff" opacity=".10"/><text x="289" y="209.0" font-size="13.5" fill="#eaf2ff" text-anchor="middle">pgvector</text></g>
<g class="pill" style="animation-delay:-7.33s"><rect x="342" y="188" width="111" height="32" rx="16.0" fill="url(#glass)" stroke="#3a6a8a" stroke-width="1"/><rect x="347" y="190.5" width="101" height="8" rx="4" fill="#ffffff" opacity=".10"/><text x="398" y="209.0" font-size="13.5" fill="#eaf2ff" text-anchor="middle">Embeddings</text></g>
<g class="pill" style="animation-delay:0.00s"><rect x="462" y="188" width="96" height="32" rx="16.0" fill="url(#glass)" stroke="#3a6a8a" stroke-width="1"/><rect x="467" y="190.5" width="86" height="8" rx="4" fill="#ffffff" opacity=".10"/><text x="510" y="209.0" font-size="13.5" fill="#eaf2ff" text-anchor="middle">Reranking</text></g>
<g class="pill" style="animation-delay:-0.67s"><rect x="567" y="188" width="56" height="32" rx="16.0" fill="url(#glass)" stroke="#3a6a8a" stroke-width="1"/><rect x="572" y="190.5" width="46" height="8" rx="4" fill="#ffffff" opacity=".10"/><text x="595" y="209.0" font-size="13.5" fill="#eaf2ff" text-anchor="middle">SQL</text></g>
<g class="pill" style="animation-delay:-1.33s"><rect x="632" y="188" width="77" height="32" rx="16.0" fill="url(#glass)" stroke="#3a6a8a" stroke-width="1"/><rect x="637" y="190.5" width="67" height="8" rx="4" fill="#ffffff" opacity=".10"/><text x="670" y="209.0" font-size="13.5" fill="#eaf2ff" text-anchor="middle">Pandas</text></g>
<text x="28" y="262" font-size="12" font-weight="700" fill="#8b98b8" letter-spacing="3">SERVING &amp; MLOPS</text>
<rect class="beam" x="28" y="270" width="44" height="3" rx="1.5" fill="#22d3ee"/>
<g class="pill" style="animation-delay:-2.00s"><rect x="28" y="276" width="75" height="32" rx="16.0" fill="url(#glass)" stroke="#3a6a8a" stroke-width="1"/><rect x="33" y="278.5" width="65" height="8" rx="4" fill="#ffffff" opacity=".10"/><text x="66" y="297.0" font-size="13.5" fill="#eaf2ff" text-anchor="middle">Python</text></g>
<g class="pill" style="animation-delay:-2.67s"><rect x="112" y="276" width="77" height="32" rx="16.0" fill="url(#glass)" stroke="#3a6a8a" stroke-width="1"/><rect x="117" y="278.5" width="67" height="8" rx="4" fill="#ffffff" opacity=".10"/><text x="150" y="297.0" font-size="13.5" fill="#eaf2ff" text-anchor="middle">FastAPI</text></g>
<g class="pill" style="animation-delay:-3.33s"><rect x="198" y="276" width="76" height="32" rx="16.0" fill="url(#glass)" stroke="#3a6a8a" stroke-width="1"/><rect x="203" y="278.5" width="66" height="8" rx="4" fill="#ffffff" opacity=".10"/><text x="236" y="297.0" font-size="13.5" fill="#eaf2ff" text-anchor="middle">Docker</text></g>
<g class="pill" style="animation-delay:-4.00s"><rect x="283" y="276" width="127" height="32" rx="16.0" fill="url(#glass)" stroke="#3a6a8a" stroke-width="1"/><rect x="288" y="278.5" width="117" height="8" rx="4" fill="#ffffff" opacity=".10"/><text x="346" y="297.0" font-size="13.5" fill="#eaf2ff" text-anchor="middle">GitHub Actions</text></g>
<g class="pill" style="animation-delay:-4.67s"><rect x="419" y="276" width="70" height="32" rx="16.0" fill="url(#glass)" stroke="#3a6a8a" stroke-width="1"/><rect x="424" y="278.5" width="60" height="8" rx="4" fill="#ffffff" opacity=".10"/><text x="454" y="297.0" font-size="13.5" fill="#eaf2ff" text-anchor="middle">Pytest</text></g>
<g class="pill" style="animation-delay:-5.33s"><rect x="498" y="276" width="65" height="32" rx="16.0" fill="url(#glass)" stroke="#3a6a8a" stroke-width="1"/><rect x="503" y="278.5" width="55" height="8" rx="4" fill="#ffffff" opacity=".10"/><text x="530" y="297.0" font-size="13.5" fill="#eaf2ff" text-anchor="middle">Linux</text></g>
<g class="pill" style="animation-delay:-6.00s"><rect x="572" y="276" width="49" height="32" rx="16.0" fill="url(#glass)" stroke="#3a6a8a" stroke-width="1"/><rect x="577" y="278.5" width="39" height="8" rx="4" fill="#ffffff" opacity=".10"/><text x="596" y="297.0" font-size="13.5" fill="#eaf2ff" text-anchor="middle">Git</text></g>
<text x="28" y="350" font-size="12" font-weight="700" fill="#8b98b8" letter-spacing="3">PRACTICES</text>
<rect class="beam" x="28" y="358" width="44" height="3" rx="1.5" fill="#22d3ee"/>
<g class="pill" style="animation-delay:-6.67s"><rect x="28" y="364" width="193" height="32" rx="16.0" fill="url(#glass)" stroke="#3a6a8a" stroke-width="1"/><rect x="33" y="366.5" width="183" height="8" rx="4" fill="#ffffff" opacity=".10"/><text x="124" y="385.0" font-size="13.5" fill="#eaf2ff" text-anchor="middle">Eval-driven development</text></g>
<g class="pill" style="animation-delay:-7.33s"><rect x="230" y="364" width="96" height="32" rx="16.0" fill="url(#glass)" stroke="#3a6a8a" stroke-width="1"/><rect x="235" y="366.5" width="86" height="8" rx="4" fill="#ffffff" opacity=".10"/><text x="278" y="385.0" font-size="13.5" fill="#eaf2ff" text-anchor="middle">RAG evals</text></g>
<g class="pill" style="animation-delay:0.00s"><rect x="335" y="364" width="159" height="32" rx="16.0" fill="url(#glass)" stroke="#3a6a8a" stroke-width="1"/><rect x="340" y="366.5" width="149" height="8" rx="4" fill="#ffffff" opacity=".10"/><text x="414" y="385.0" font-size="13.5" fill="#eaf2ff" text-anchor="middle">Prompt engineering</text></g>
<g class="pill" style="animation-delay:-0.67s"><rect x="503" y="364" width="169" height="32" rx="16.0" fill="url(#glass)" stroke="#3a6a8a" stroke-width="1"/><rect x="508" y="366.5" width="159" height="8" rx="4" fill="#ffffff" opacity=".10"/><text x="588" y="385.0" font-size="13.5" fill="#eaf2ff" text-anchor="middle">Structured extraction</text></g>
<g class="pill" style="animation-delay:-1.33s"><rect x="28" y="406" width="116" height="32" rx="16.0" fill="url(#glass)" stroke="#3a6a8a" stroke-width="1"/><rect x="33" y="408.5" width="106" height="8" rx="4" fill="#ffffff" opacity=".10"/><text x="86" y="427.0" font-size="13.5" fill="#eaf2ff" text-anchor="middle">LLM-as-judge</text></g>
</svg>